<?xml version="1.0" encoding="UTF-8" standalone="no"?>
<!-- Created with Inkscape (http://www.inkscape.org/) -->

<svg
   xmlns:dc="http://purl.org/dc/elements/1.1/"
   xmlns:cc="http://creativecommons.org/ns#"
   xmlns:rdf="http://www.w3.org/1999/02/22-rdf-syntax-ns#"
   xmlns:svg="http://www.w3.org/2000/svg"
   xmlns="http://www.w3.org/2000/svg"
   xmlns:xlink="http://www.w3.org/1999/xlink"
   xmlns:sodipodi="http://sodipodi.sourceforge.net/DTD/sodipodi-0.dtd"
   xmlns:inkscape="http://www.inkscape.org/namespaces/inkscape"
   width="60"
   height="60"
   id="svg2"
   version="1.1"
   inkscape:version="0.48.1 r9760"
   sodipodi:docname="green-key-non-pressed.png"
   inkscape:export-filename="/media/5516-6A0A/Infinite-Guitar/images/green-key-non-pressed.png"
   inkscape:export-xdpi="90"
   inkscape:export-ydpi="90">
  <defs
     id="defs4">
    <linearGradient
       id="linearGradient3769">
      <stop
         style="stop-color:#00ff00;stop-opacity:1;"
         offset="0"
         id="stop3779" />
      <stop
         id="stop3787"
         offset="0.72340423"
         style="stop-color:#004f00;stop-opacity:1;" />
      <stop
         style="stop-color:#000000;stop-opacity:1;"
         offset="1"
         id="stop3773" />
    </linearGradient>
    <linearGradient
       inkscape:collect="always"
       xlink:href="#linearGradient3769"
       id="linearGradient3775"
       x1="11.508927"
       y1="31.597116"
       x2="46.407115"
       y2="31.597116"
       gradientUnits="userSpaceOnUse" />
  </defs>
  <sodipodi:namedview
     id="base"
     pagecolor="#ffffff"
     bordercolor="#666666"
     borderopacity="1.0"
     inkscape:pageopacity="0.0"
     inkscape:pageshadow="2"
     inkscape:zoom="5.6"
     inkscape:cx="19.367075"
     inkscape:cy="32.613571"
     inkscape:document-units="px"
     inkscape:current-layer="layer1"
     showgrid="false"
     width="800px"
     showborder="true"
     borderlayer="false"
     inkscape:showpageshadow="true"
     inkscape:window-width="1440"
     inkscape:window-height="870"
     inkscape:window-x="0"
     inkscape:window-y="0"
     inkscape:window-maximized="1" />
  <metadata
     id="metadata7">
    <rdf:RDF>
      <cc:Work
         rdf:about="">
        <dc:format>image/svg+xml</dc:format>
        <dc:type
           rdf:resource="http://purl.org/dc/dcmitype/StillImage" />
        <dc:title></dc:title>
      </cc:Work>
    </rdf:RDF>
  </metadata>
  <g
     inkscape:label="Camada 1"
     inkscape:groupmode="layer"
     id="layer1"
     transform="translate(0,-992.36214)">
    <path
       style="fill:none;stroke:#000000;stroke-width:1px;stroke-linecap:butt;stroke-linejoin:miter;stroke-opacity:1"
       d="m 23.571428,1009.505 c 1.607143,-1.4286 3.75,-1.0714 3.75,-1.0714 0,0 11.071429,-0.7143 13.392857,0.5357 2.321429,1.25 1.785715,1.7857 1.071429,3.2143 -0.714286,1.4285 -6.428571,8.9285 -7.678571,10 -1.250001,1.0714 -2.321429,1.4285 -3.750001,1.25 -1.428571,-0.1786 -13.035714,0.5357 -14.821428,-1.0715 -1.785714,-1.6071 -2.142857,-2.6785 -0.892857,-3.9285 1.25,-1.25 8.928571,-8.9286 8.928571,-8.9286 z"
       id="path2995"
       inkscape:connector-curvature="0" />
    <path
       style="fill:none;stroke:#000000;stroke-width:1px;stroke-linecap:butt;stroke-linejoin:miter;stroke-opacity:1"
       d="m 13.928571,1020.3979 -3.035714,12.5 c 0,0 1.071428,2.3214 2.678571,2.6785 1.607143,0.3572 22.5,1.7857 24.821429,0 2.321428,-1.7857 8.035714,-9.2857 8.214286,-10.8928 0.178571,-1.6072 0.357142,-3.3929 0.357142,-3.3929 L 42.5,1010.0407"
       id="path2997"
       inkscape:connector-curvature="0" />
    <path
       style="fill:url(#linearGradient3775);fill-opacity:1;stroke:#ffffff;stroke-width:0.17857143000000000;stroke-opacity:1;"
       d="m 26.831361,43.444138 c -3.394884,-0.107732 -9.318547,-0.438092 -11.200281,-0.624634 -2.259252,-0.223966 -2.788958,-0.455467 -3.598144,-1.572516 -0.513942,-0.709475 -0.519223,-0.73978 -0.288873,-1.657694 0.129051,-0.514254 0.733301,-3.004111 1.342778,-5.533016 l 1.10814,-4.598009 0.665701,0.685959 c 1.168668,1.204233 3.140874,1.454506 11.434965,1.4511 6.96656,-0.0029 6.819755,0.02819 8.638489,-1.827217 1.361132,-1.388579 4.705916,-5.666906 6.409832,-8.198844 l 1.282979,-1.906447 1.845441,4.585019 1.845441,4.585019 -0.114759,1.607143 c -0.06818,0.954799 -0.252506,1.921288 -0.45412,2.381086 -0.747059,1.703732 -5.105986,7.480828 -6.935944,9.192539 -0.496254,0.464187 -1.164175,0.891707 -1.55939,0.998128 -0.75926,0.204447 -6.359555,0.568015 -7.922255,0.514308 -0.540179,-0.01857 -1.665179,-0.05543 -2.5,-0.08192 z"
       id="path3767"
       inkscape:connector-curvature="0"
       transform="translate(0,992.36214)" />
    <path
       style="fill:#00ff00;fill-opacity:1;stroke:#ffffff;stroke-width:0.17857143000000000;stroke-opacity:1"
       d="m 20.045647,30.351374 c -2.513513,-0.182199 -3.667061,-0.474463 -4.394869,-1.113487 -0.670295,-0.588526 -1.140846,-1.356424 -1.140846,-1.86176 0,-0.426404 9.370024,-9.812781 10.267857,-10.285776 0.625627,-0.329592 1.179748,-0.395585 4.464286,-0.531675 4.212131,-0.174524 8.380639,-0.05659 10.029525,0.283755 1.091686,0.225332 2.289341,0.874769 2.469,1.338833 0.133972,0.34605 -0.590769,1.59394 -2.333169,4.017356 -3.753438,5.220466 -6.013233,7.716261 -7.348972,8.116459 -0.779695,0.233602 -8.950323,0.258289 -12.012812,0.03629 z"
       id="path3801"
       inkscape:connector-curvature="0"
       transform="translate(0,992.36214)" />
  </g>
</svg>
